<svg width="16" height="14" viewBox="0 0 16 14" fill="none" xmlns="http://www.w3.org/2000/svg">
<path d="M1.46667 7.00001L1.00244 6.81432C0.954754 6.93352 0.954754 7.0665 1.00244 7.1857L1.46667 7.00001ZM14.5333 7.00001L14.9976 7.18571C15.0453 7.0665 15.0453 6.93352 14.9976 6.81431L14.5333 7.00001ZM7.99999 11.1667C5.85265 11.1667 4.34446 10.0983 3.35498 8.99886C2.8599 8.44876 2.50104 7.89697 2.26627 7.48267C2.14916 7.27602 2.06372 7.10496 2.00826 6.98732C1.98055 6.92854 1.96039 6.88323 1.94756 6.85362C1.94114 6.83881 1.93657 6.82795 1.9338 6.8213C1.93242 6.81798 1.93149 6.81571 1.93101 6.81453C1.93077 6.81395 1.93064 6.81363 1.93062 6.81359C1.93062 6.81357 1.93064 6.81362 1.93068 6.81374C1.93071 6.8138 1.93077 6.81395 1.93078 6.81398C1.93084 6.81414 1.93091 6.81432 1.46667 7.00001C1.00244 7.1857 1.00252 7.18592 1.00261 7.18615C1.00265 7.18625 1.00275 7.1865 1.00284 7.1867C1.003 7.1871 1.00319 7.18758 1.00341 7.18813C1.00385 7.18922 1.00441 7.19059 1.00508 7.19225C1.00643 7.19556 1.00825 7.19999 1.01054 7.20549C1.01513 7.2165 1.0216 7.23184 1.03 7.25122C1.04679 7.28997 1.07129 7.34491 1.10373 7.41374C1.16859 7.55131 1.26543 7.74483 1.39624 7.97568C1.65731 8.43638 2.05678 9.05126 2.61169 9.66782C3.72221 10.9017 5.48067 12.1667 7.99999 12.1667V11.1667ZM1.46667 7.00001C1.93091 7.1857 1.93084 7.18588 1.93078 7.18604C1.93077 7.18607 1.93071 7.18621 1.93068 7.18627C1.93064 7.18639 1.93062 7.18645 1.93062 7.18643C1.93064 7.18639 1.93077 7.18607 1.93101 7.18548C1.93149 7.18431 1.93242 7.18204 1.9338 7.17872C1.93657 7.17207 1.94114 7.16121 1.94756 7.1464C1.96039 7.11679 1.98055 7.07147 2.00826 7.0127C2.06372 6.89506 2.14916 6.724 2.26627 6.51735C2.50104 6.10305 2.8599 5.55126 3.35498 5.00116C4.34446 3.90174 5.85265 2.83334 7.99999 2.83334V1.83334C5.48067 1.83334 3.72221 3.09828 2.61169 4.33219C2.05678 4.94876 1.65731 5.56364 1.39624 6.02434C1.26543 6.25518 1.16859 6.44871 1.10373 6.58628C1.07129 6.65511 1.04679 6.71005 1.03 6.7488C1.0216 6.76818 1.01513 6.78352 1.01054 6.79453C1.00825 6.80003 1.00643 6.80446 1.00508 6.80777C1.00441 6.80942 1.00385 6.8108 1.00341 6.81189C1.00319 6.81244 1.003 6.81291 1.00284 6.81332C1.00275 6.81352 1.00265 6.81377 1.00261 6.81387C1.00252 6.8141 1.00244 6.81432 1.46667 7.00001ZM7.99999 2.83334C10.1473 2.83334 11.6555 3.90174 12.645 5.00116C13.1401 5.55126 13.499 6.10305 13.7337 6.51735C13.8508 6.724 13.9363 6.89506 13.9918 7.0127C14.0195 7.07148 14.0396 7.11679 14.0525 7.14641C14.0589 7.16121 14.0635 7.17207 14.0662 7.17872C14.0676 7.18204 14.0685 7.18431 14.069 7.18549C14.0692 7.18608 14.0694 7.18639 14.0694 7.18643C14.0694 7.18645 14.0694 7.1864 14.0693 7.18628C14.0693 7.18622 14.0693 7.18607 14.0692 7.18604C14.0692 7.18588 14.0691 7.18571 14.5333 7.00001C14.9976 6.81431 14.9975 6.8141 14.9974 6.81387C14.9974 6.81377 14.9973 6.81352 14.9972 6.81332C14.997 6.81291 14.9968 6.81244 14.9966 6.81189C14.9962 6.8108 14.9956 6.80942 14.9949 6.80777C14.9936 6.80446 14.9918 6.80003 14.9895 6.79453C14.9849 6.78351 14.9784 6.76817 14.97 6.7488C14.9532 6.71005 14.9287 6.6551 14.8963 6.58628C14.8314 6.4487 14.7346 6.25518 14.6038 6.02434C14.3427 5.56364 13.9432 4.94876 13.3883 4.33219C12.2778 3.09828 10.5193 1.83334 7.99999 1.83334V2.83334ZM14.5333 7.00001C14.0691 6.81431 14.0692 6.81414 14.0692 6.81397C14.0693 6.81395 14.0693 6.8138 14.0693 6.81374C14.0694 6.81362 14.0694 6.81357 14.0694 6.81359C14.0694 6.81363 14.0692 6.81394 14.069 6.81453C14.0685 6.81571 14.0676 6.81798 14.0662 6.8213C14.0635 6.82795 14.0589 6.83881 14.0525 6.85361C14.0396 6.88323 14.0195 6.92854 13.9918 6.98732C13.9363 7.10495 13.8508 7.27602 13.7337 7.48267C13.499 7.89697 13.1401 8.44876 12.645 8.99886C11.6555 10.0983 10.1473 11.1667 7.99999 11.1667V12.1667C10.5193 12.1667 12.2778 10.9017 13.3883 9.66783C13.9432 9.05126 14.3427 8.43638 14.6038 7.97568C14.7346 7.74484 14.8314 7.55131 14.8963 7.41374C14.9287 7.34491 14.9532 7.28997 14.97 7.25122C14.9784 7.23185 14.9849 7.21651 14.9895 7.20549C14.9918 7.19999 14.9936 7.19556 14.9949 7.19225C14.9956 7.1906 14.9962 7.18922 14.9966 7.18813C14.9968 7.18758 14.997 7.18711 14.9972 7.1867C14.9973 7.1865 14.9974 7.18625 14.9974 7.18615C14.9975 7.18592 14.9976 7.18571 14.5333 7.00001ZM8.00001 8.36668C7.24522 8.36668 6.63334 7.7548 6.63334 7.00001H5.63334C5.63334 8.30708 6.69293 9.36668 8.00001 9.36668V8.36668ZM9.36667 7.00001C9.36667 7.7548 8.7548 8.36668 8.00001 8.36668V9.36668C9.30708 9.36668 10.3667 8.30708 10.3667 7.00001H9.36667ZM8.00001 5.63334C8.7548 5.63334 9.36667 6.24522 9.36667 7.00001H10.3667C10.3667 5.69294 9.30708 4.63334 8.00001 4.63334V5.63334ZM8.00001 4.63334C6.69293 4.63334 5.63334 5.69294 5.63334 7.00001H6.63334C6.63334 6.24522 7.24522 5.63334 8.00001 5.63334V4.63334Z" fill="#A5A4AA"/>
</svg>
