<svg width="43" height="42" viewBox="0 0 43 42" fill="none" xmlns="http://www.w3.org/2000/svg">
<g clip-path="url(#clip0_307_1130)">
<path d="M21.0193 24.59C27.8058 24.8189 31.8103 17.4456 28.4373 11.8482L26.7898 9.11405L25.7361 9.74894L27.3836 12.4831C30.2671 17.2678 26.8459 23.5547 21.0607 23.3606C15.6713 23.1789 12.4676 17.1556 15.2834 12.4831L21.3336 2.44239L25.0817 8.66327L26.1354 8.02846L21.3336 0.0589752L14.2299 11.8482C10.9308 17.3226 14.6881 24.3766 21.0193 24.59Z" fill="#003CFF"/>
<path d="M0.333496 40.9927H7.56345V25.5121H0.333496V40.9927ZM1.56358 26.7422H6.33337V39.7626H1.56358V26.7422Z" fill="#003CFF"/>
<path d="M21.4053 40.6406L10.739 37.6876H9.40894V38.9176H10.5719L21.4928 41.9412L28.9559 38.7475L28.4719 37.6166L21.4053 40.6406Z" fill="#003CFF"/>
<path d="M40.7976 29.9134L37.9109 28.847L37.2198 27.4485L33.9413 26.2374L28.8552 28.4123L27.1998 26.757H13.5807L10.4792 28.6931H9.40894V29.9232H10.0405V33.163H11.2705V29.6492L13.9331 27.987H26.6903L28.8464 30.1433L28.8289 32.537H24.0238V30.1432H22.7937V32.537H18.0813V33.7671H28.8199L37.5563 30.0273L39.9117 30.8974L40.6554 32.4031L35.3858 34.6583L34.7706 33.4133L33.6679 33.9583L34.2533 35.1429L29.6036 37.1328L30.0875 38.2637L42.3336 33.023L40.7976 29.9134ZM30.0769 31.8844V29.634L29.7923 29.3494L33.9744 27.5609L36.3339 28.4326L36.6505 29.0733L30.0769 31.8844Z" fill="#003CFF"/>
<path d="M3.38135 37.1681H4.61143V38.3982H3.38135V37.1681Z" fill="#003CFF"/>
<path d="M3.38135 28.1065H4.61143V29.3366H3.38135V28.1065Z" fill="#003CFF"/>
<path d="M25.6997 18.1509H24.4696V16.9208H25.6997V18.1509ZM22.0095 18.1509H20.7794V16.9208H22.0095V18.1509ZM18.3192 18.1509H17.0891V16.9208H18.3192V18.1509Z" fill="#003CFF"/>
</g>
<defs>
<clipPath id="clip0_307_1130">
<rect width="42" height="42" fill="white" transform="translate(0.333496)"/>
</clipPath>
</defs>
</svg>
