<svg width="43" height="42" viewBox="0 0 43 42" fill="none" xmlns="http://www.w3.org/2000/svg">
<g clip-path="url(#clip0_307_1069)">
<path d="M39.8787 34.8138L38.8759 33.15L37.8224 33.785L38.8252 35.4486C40.2143 37.7544 38.6025 40.8576 35.737 40.7665C33.107 40.6779 31.541 37.7336 32.918 35.4486L35.8712 30.5469L37.1681 32.6993L38.2216 32.0645L35.8712 28.1637L31.8645 34.8139C30.9836 36.2755 30.9456 38.0468 31.7628 39.5519C33.5338 42.8142 38.2071 42.8175 39.9799 39.5527C40.7972 38.0474 40.7594 36.2759 39.8787 34.8138Z" fill="#1EE9B6"/>
<path d="M32.3697 23.1435V26.8347H39.2789V20.2817L34.7023 15.7051H31.1824V16.935H34.1929L38.0489 20.7912V25.6047H33.5997V22.6343L32.3507 21.3843H31.1824V22.6142H31.8409L32.3697 23.1435Z" fill="#1EE9B6"/>
<path d="M9.56299 25.8442H15.1257V24.6142H10.793V13.7937H28.1077V24.6142H16.3557V25.8442H29.3376V12.5637H9.56299V25.8442Z" fill="#1EE9B6"/>
<path d="M17.2174 8.61226H15.857L14.1862 10.284L15.0561 11.1535L16.3667 9.84231H22.5335L23.8449 11.1537L24.7145 10.284L23.0428 8.61226H21.683V7.04364H27.6877V2.70348H21.683V1.14822L20.5347 0H18.3656L17.2174 1.14822V2.70348H11.2126V7.04364H17.2174V8.61226ZM20.453 8.61226H18.4473V7.04364H20.453V8.61226ZM18.4473 1.65767L18.875 1.22997H20.0252L20.4529 1.65767V2.70348H18.4473V1.65767H18.4473ZM12.4426 5.81366V3.93345H26.4577V5.81366H12.4426Z" fill="#1EE9B6"/>
<path d="M2.1001 22.6142H7.71779V21.3843H3.33007V16.935H7.71779V15.7051H2.1001V22.6142Z" fill="#1EE9B6"/>
<path d="M23.7356 19.8187H22.5056V18.5888H23.7356V19.8187ZM20.0456 19.8187H18.8156V18.5888H20.0456V19.8187ZM16.3557 19.8187H15.1257V18.5888H16.3557V19.8187Z" fill="#1EE9B6"/>
<path d="M35.262 37.0508H36.4919V38.2807H35.262V37.0508Z" fill="#1EE9B6"/>
</g>
<defs>
<clipPath id="clip0_307_1069">
<rect width="42" height="42" fill="white" transform="translate(0.333496)"/>
</clipPath>
</defs>
</svg>
