<svg width="43" height="42" viewBox="0 0 43 42" fill="none" xmlns="http://www.w3.org/2000/svg">
<g clip-path="url(#clip0_307_1047)">
<path d="M38.9445 3.92929V5.16226H41.1005V23.2746H36.65L33.6685 27.4928L30.5296 23.2746H15.3289V5.16226H37.7115V3.92929H14.0959V24.5076H29.9102L33.6941 29.5926L37.2884 24.5076H42.3335V3.92929H38.9445Z" fill="#AF52DE"/>
<path d="M22.9332 8.87913C20.0143 11.798 20.0139 16.5226 22.9332 19.4418C25.8521 22.3607 30.5766 22.3611 33.4959 19.4418C36.4148 16.523 36.4152 11.7984 33.4959 8.87913C30.5771 5.96027 25.8525 5.95986 22.9332 8.87913ZM24.32 9.29045C24.3164 9.31462 24.3168 9.32761 24.3241 9.32251L24.9954 11.1991L24.8993 11.8061L23.5398 12.3757L23.2093 13.8637L22.005 13.6308C22.1479 11.9411 22.9642 10.376 24.32 9.29045ZM22.6868 17.0477L24.0978 16.9968L25.485 18.45L27.1075 17.959L29.0846 19.2359L29.176 20.3173C26.4736 20.7365 23.8972 19.3684 22.6868 17.0477ZM32.6725 18.519L32.2234 17.959L32.6711 16.3024L34.1766 15.0355L34.3869 15.0282C34.2092 16.3031 33.6374 17.5325 32.6725 18.519ZM34.4364 13.8044L33.7308 13.7993L31.5816 15.6077L30.8692 18.2437L31.7291 19.3105C31.307 19.5988 30.8568 19.8281 30.3902 20.0011L30.2595 18.5268L27.2968 16.6134L25.8534 17.0502L24.606 15.7436L22.2103 15.8346C22.1243 15.5242 22.0628 15.2086 22.0256 14.8904L24.1529 15.3023L24.6051 13.2662L26.0096 12.6778L26.2625 11.0806L25.3779 8.6078C25.9188 8.33227 26.4916 8.14009 27.0772 8.03224L26.5762 10.9284L27.8079 11.7253L29.289 11.7403L32.4363 13.9584L34.3731 13.2081C34.4036 13.406 34.4252 13.605 34.4364 13.8044ZM33.8783 11.5548C33.8726 11.5548 33.867 11.5553 33.8613 11.5551C33.9153 11.6979 33.9681 11.8511 34.0233 12.0212L32.6068 12.57L29.6855 10.5112L28.1778 10.496L27.9301 10.3357L28.3462 7.93048C30.7644 7.98112 32.8934 9.40586 33.8783 11.5548Z" fill="#AF52DE"/>
<path d="M27.3381 31.7517H12.1373L8.9985 35.9706L6.01701 31.7517H1.56647V13.6394H12.2465V12.4064H0.333496V32.9847H5.37849L8.97286 38.0706L12.7568 32.9847H28.571V26.3571H27.3381V31.7517Z" fill="#AF52DE"/>
<path d="M7.93241 27.352C7.34354 27.3742 6.78386 27.2288 6.29626 26.9092L5.62026 27.9403C6.28072 28.3733 7.09604 28.6175 7.97647 28.5842C11.0536 28.4802 12.8939 25.0535 11.2858 22.3834L7.8249 16.6402L4.36402 22.3834C3.50842 23.8031 3.5884 25.5901 4.56787 26.9359L5.56477 26.2105C4.87776 25.2664 4.82088 24.014 5.4201 23.0199L7.8249 19.0291L10.2296 23.0197C11.3507 24.8811 10.0765 27.2795 7.93241 27.352Z" fill="#AF52DE"/>
<path d="M27.6038 13.544H28.8367V14.777H27.6038V13.544Z" fill="#AF52DE"/>
<path d="M17.4934 13.544H18.7264V14.777H17.4934V13.544Z" fill="#AF52DE"/>
<path d="M37.7141 13.544H38.9471V14.777H37.7141V13.544Z" fill="#AF52DE"/>
<path d="M24.937 28.5868H23.704V27.3538H24.937V28.5868ZM21.238 28.5868H20.0051V27.3538H21.238V28.5868ZM17.5391 28.5868H16.3062V27.3538H17.5391V28.5868Z" fill="#AF52DE"/>
</g>
<defs>
<clipPath id="clip0_307_1047">
<rect width="42" height="42" fill="white" transform="translate(0.333496)"/>
</clipPath>
</defs>
</svg>
