<svg width="43" height="42" viewBox="0 0 43 42" fill="none" xmlns="http://www.w3.org/2000/svg">
<path d="M11.261 20.9999C11.261 26.5539 15.7795 31.0724 21.3334 31.0724C26.8874 31.0724 31.4059 26.5539 31.4059 20.9999C31.4059 15.4459 26.8874 10.9274 21.3334 10.9274C15.7795 10.9274 11.261 15.4459 11.261 20.9999ZM30.1767 20.9999C30.1767 25.8761 26.2096 29.8431 21.3334 29.8431C16.4573 29.8431 12.4902 25.8761 12.4902 20.9999C12.4902 16.1237 16.4573 12.1567 21.3334 12.1567C26.2096 12.1567 30.1767 16.1237 30.1767 20.9999Z" fill="#34C759"/>
<path d="M40.1449 30.3373L42.3335 20.7952L37.6813 18.6761C37.6414 18.3937 37.5935 18.1113 37.5382 17.8308L41.2367 14.3008L36.038 6.00691L31.2488 7.79707C31.0219 7.62637 30.7886 7.46018 30.5507 7.29997L30.6708 2.1886L21.1289 0L19.0078 4.65189C18.7252 4.69229 18.4432 4.74015 18.1643 4.79522L14.6342 1.0968L6.3404 6.29553L8.13057 11.0847C7.95987 11.3116 7.79368 11.5449 7.63347 11.7828L2.52209 11.6627L0.333496 21.2047L4.98571 23.3239C5.02562 23.6062 5.07348 23.8886 5.12879 24.1691L1.43029 27.6992L3.6134 31.1815L4.65489 30.5285L3.00444 27.8959L6.47488 24.5835C6.24125 23.5232 6.21641 23.2965 6.12062 22.49L1.75579 20.5019L3.49589 12.9151L8.28979 13.0278C8.88154 12.1081 9.02364 11.931 9.52246 11.2977L7.84293 6.80451L14.4375 2.67095L17.7499 6.14138C18.7862 5.91308 18.9942 5.888 19.8419 5.78556L21.8315 1.42238L29.4184 3.16247L29.3057 7.95638C30.2254 8.54813 30.4024 8.69023 31.0357 9.18905L35.529 7.50951L39.6625 14.1041L36.1921 17.4165C36.4257 18.4768 36.4506 18.7035 36.5464 19.51L40.9111 21.4982L39.171 29.085L34.3771 28.9723C33.7854 29.8919 33.6433 30.069 33.1444 30.7023L34.824 35.1956L28.2294 39.3291L24.917 35.8587C23.8566 36.0923 23.63 36.1172 22.8235 36.213L20.8354 40.5776L13.2484 38.8375L13.3595 34.043C12.4616 33.4648 12.3135 33.3484 11.6312 32.811L7.13793 34.4906L5.32441 31.5973L4.28284 32.2502L6.62894 35.9931L11.4181 34.2029C11.6446 34.3734 11.8773 34.5392 12.1147 34.6991L11.9962 39.8115L21.5382 42L23.6573 37.3478C23.9397 37.3079 24.2221 37.26 24.5026 37.2047L28.0327 40.9032L36.3265 35.7045L34.5363 30.9153C34.707 30.6884 34.8732 30.4551 35.0334 30.2172L40.1449 30.3373Z" fill="#34C759"/>
<path d="M24.1925 8.53721C17.3205 6.96077 10.4473 11.269 8.87083 18.141C7.29447 25.013 11.6027 31.8863 18.4746 33.4627C25.3295 35.0353 32.2162 30.7468 33.7963 23.8589C34.6931 19.9494 33.7384 15.9333 31.1769 12.8401L30.2301 13.6241C32.5457 16.4202 33.4088 20.0505 32.5981 23.5841C31.3719 28.9295 26.6002 32.5588 21.3345 32.5585C13.9137 32.5585 8.41241 25.6368 10.0688 18.4159C11.4937 12.2046 17.7061 8.31054 23.9175 9.73529C26.0107 10.2158 27.9207 11.2622 29.4409 12.7617L30.3041 11.8864C28.6215 10.2269 26.5081 9.06873 24.1925 8.53721Z" fill="#34C759"/>
<path d="M20.725 14.52L16.7227 22.6003H19.6622L17.2143 27.4798H19.698L26.1873 18.8734H22.8943L25.062 14.5199H20.725V14.52ZM23.7209 20.1026L19.4462 25.7719L21.654 21.371H18.7032L21.4878 15.7492H23.0766L20.9089 20.1027H23.7209V20.1026Z" fill="#34C759"/>
<path d="M24.3157 6.12411L24.591 4.92562L25.7895 5.20097L25.5142 6.39946L24.3157 6.12411Z" fill="#34C759"/>
<path d="M16.9639 37.182L17.2392 35.9835L18.4377 36.2589L18.1624 37.4574L16.9639 37.182Z" fill="#34C759"/>
<path d="M36.1621 25.333L36.4375 24.1345L37.636 24.4098L37.3606 25.6083L36.1621 25.333Z" fill="#34C759"/>
<path d="M5.104 17.9799L5.37935 16.7814L6.57785 17.0567L6.3025 18.2552L5.104 17.9799Z" fill="#34C759"/>
<path d="M34.0762 12.6239L35.1173 11.9712L35.77 13.0124L34.7289 13.6651L34.0762 12.6239Z" fill="#34C759"/>
<path d="M6.92969 29.3632L7.97084 28.7105L8.62356 29.7517L7.58241 30.4044L6.92969 29.3632Z" fill="#34C759"/>
<path d="M28.865 34.5655L29.9061 33.9128L30.5589 34.954L29.5177 35.6067L28.865 34.5655Z" fill="#34C759"/>
<path d="M12.1257 7.41783L13.1669 6.76511L13.8196 7.80627L12.7785 8.45899L12.1257 7.41783Z" fill="#34C759"/>
<path d="M14.1685 20.3853H15.3977V21.6145H14.1685V20.3853Z" fill="#34C759"/>
<path d="M27.2803 20.3853H28.5095V21.6145H27.2803V20.3853Z" fill="#34C759"/>
</svg>
