<svg width="43" height="42" viewBox="0 0 43 42" fill="none" xmlns="http://www.w3.org/2000/svg">
<g clip-path="url(#clip0_307_1025)">
<path d="M39.7956 20.2622C39.3904 10.406 31.2864 2.51869 21.2921 2.51869C18.7933 2.51869 16.3675 3.00881 14.082 3.97554L13.5164 4.21482L16.0685 10.2486L16.6342 10.0094C20.9138 8.19915 26.1084 8.97982 29.6999 12.5291C31.8063 14.6109 33.0482 17.3371 33.2357 20.2623H30.7406L36.5371 28.5121L42.3336 20.2623H39.7956V20.2622ZM33.105 21.4906H34.4956L34.4877 20.8685C34.3957 13.6602 28.5142 7.84162 21.2921 7.84162C19.7168 7.84162 18.1841 8.1139 16.7268 8.65185L15.1304 4.87765C21.2292 2.5485 28.4917 3.78399 33.5196 8.81186C36.744 12.0362 38.5421 16.3228 38.5825 20.8818L38.5879 21.4906H39.9693L36.5372 26.3753L33.105 21.4906Z" fill="#FF6E01"/>
<path d="M26.0328 31.988C21.7539 33.7985 16.5578 33.0168 12.9669 29.4682C10.8605 27.3865 9.61872 24.6602 9.43127 21.735H11.9262L6.12934 13.4856L0.333496 21.735H2.87138C3.06825 26.5275 5.09399 31.1175 8.79572 34.5516L9.63109 33.651C6.10273 30.3778 4.12678 25.899 4.08452 21.1153L4.0792 20.5065H2.69778L6.12942 15.6221L9.56173 20.5065H8.17122L8.17916 21.1285C8.27112 28.3371 14.1523 34.1553 21.3742 34.1553C22.9506 34.1553 24.4835 33.8831 25.9401 33.3453L27.5364 37.1198C22.0939 39.1977 15.548 38.4845 10.5305 34.4293L9.75835 35.3846C15.3334 39.8905 22.637 40.5372 28.5848 38.022L29.1505 37.7827L26.5985 31.7484L26.0328 31.988Z" fill="#FF6E01"/>
<path d="M21.3335 14.6335L23.6228 18.4331L24.675 17.7991L21.3335 12.2534L16.4353 20.3827C14.0818 24.2871 16.9377 29.3386 21.5499 29.1646C25.9124 29.0176 28.5076 24.1582 26.2318 20.3829L25.3285 18.8835L24.2763 19.5173L25.1797 21.0169C27.0243 24.077 24.8136 28.0707 21.1585 27.9368C17.7337 27.8215 15.6954 23.9899 17.4874 21.0167L21.3335 14.6335Z" fill="#FF6E01"/>
<path d="M29.1423 8.43795C28.813 8.23429 28.4679 8.0407 28.1167 7.86266L28.6721 6.76704C29.0541 6.96071 29.4298 7.17142 29.7885 7.39326L29.1423 8.43795ZM25.9355 6.96931C25.5638 6.85 25.1807 6.7428 24.7972 6.65076L25.0839 5.45629C25.4972 5.55546 25.9101 5.67109 26.3109 5.79974L25.9355 6.96931ZM22.4628 6.268C22.0709 6.23254 21.6732 6.21092 21.2805 6.20363L21.303 4.97551C21.725 4.98321 22.1525 5.00646 22.5734 5.04463L22.4628 6.268Z" fill="#FF6E01"/>
<path d="M23.5554 35.2068H24.7838V36.4352H23.5554V35.2068Z" fill="#FF6E01"/>
<path d="M5.45728 18.7467H6.68564V19.9751H5.45728V18.7467Z" fill="#FF6E01"/>
<path d="M35.9102 21.8586H37.1385V23.0869H35.9102V21.8586Z" fill="#FF6E01"/>
<path d="M20.7249 23.2229H21.9532V24.4512H20.7249V23.2229Z" fill="#FF6E01"/>
</g>
<defs>
<clipPath id="clip0_307_1025">
<rect width="42" height="42" fill="white" transform="translate(0.333496)"/>
</clipPath>
</defs>
</svg>
