<svg width="14" height="14" viewBox="0 0 14 14" fill="none" xmlns="http://www.w3.org/2000/svg">
<path d="M6.99999 8.36668C4.85265 8.36668 3.34446 7.29828 2.35498 6.19886C1.8599 5.64877 1.50104 5.09697 1.26627 4.68267C1.14916 4.47602 1.06372 4.30496 1.00826 4.18732C0.980551 4.12855 0.960387 4.08323 0.947556 4.05362C0.941142 4.03882 0.936565 4.02795 0.933799 4.0213C0.932416 4.01798 0.931487 4.01571 0.931007 4.01454C0.930767 4.01395 0.930639 4.01363 0.930624 4.0136C0.930616 4.01358 0.930636 4.01363 0.930685 4.01375C0.930709 4.01381 0.930766 4.01395 0.930778 4.01398C0.930842 4.01414 0.930914 4.01432 0.466675 4.20001C0.00243598 4.38571 0.00252143 4.38592 0.00261408 4.38615C0.00265455 4.38625 0.00275472 4.3865 0.00283581 4.3867C0.00299817 4.38711 0.00318962 4.38758 0.00341025 4.38813C0.0038515 4.38922 0.00440943 4.3906 0.00508451 4.39225C0.00643462 4.39556 0.00825351 4.39999 0.010545 4.40549C0.0151275 4.41651 0.0216023 4.43185 0.0299992 4.45122C0.0467897 4.48997 0.0712872 4.54491 0.103734 4.61374C0.16859 4.75132 0.265432 4.94484 0.396244 5.17568C0.657306 5.63638 1.05678 6.25126 1.61169 6.86783C2.72221 8.10174 4.48067 9.36668 6.99999 9.36668V8.36668ZM13.5333 4.20001C13.0691 4.01432 13.0692 4.01414 13.0692 4.01398C13.0693 4.01395 13.0693 4.0138 13.0693 4.01374C13.0694 4.01362 13.0694 4.01357 13.0694 4.01359C13.0694 4.01363 13.0693 4.01395 13.069 4.01453C13.0685 4.01571 13.0676 4.01798 13.0662 4.0213C13.0635 4.02795 13.0589 4.03881 13.0525 4.05362C13.0396 4.08323 13.0195 4.12854 12.9918 4.18732C12.9363 4.30496 12.8508 4.47602 12.7337 4.68267C12.499 5.09697 12.1401 5.64876 11.645 6.19886C10.6555 7.29828 9.14734 8.36668 6.99999 8.36668V9.36668C9.51932 9.36668 11.2778 8.10174 12.3883 6.86783C12.9432 6.25126 13.3427 5.63639 13.6038 5.17569C13.7346 4.94484 13.8314 4.75132 13.8963 4.61374C13.9287 4.54492 13.9532 4.48997 13.97 4.45123C13.9784 4.43185 13.9849 4.41651 13.9895 4.4055C13.9918 4.39999 13.9936 4.39556 13.9949 4.39225C13.9956 4.3906 13.9962 4.38922 13.9966 4.38813C13.9968 4.38759 13.997 4.38711 13.9972 4.38671C13.9973 4.3865 13.9974 4.38625 13.9974 4.38615C13.9975 4.38592 13.9976 4.38571 13.5333 4.20001ZM7.50001 11.2L7.49999 8.86668L6.49999 8.86668L6.50001 11.2L7.50001 11.2ZM1.28689 9.6869L3.15356 7.82023L2.44645 7.11313L0.579788 8.97979L1.28689 9.6869ZM10.8465 7.82023L12.7131 9.6869L13.4202 8.97979L11.5536 7.11313L10.8465 7.82023Z" fill="#A5A4AA"/>
</svg>
